<?xml version="1.0" standalone="no"?>
<!DOCTYPE svg PUBLIC "-//W3C//DTD SVG 20010904//EN"
 "http://www.w3.org/TR/2001/REC-SVG-20010904/DTD/svg10.dtd">
<svg version="1.0" xmlns="http://www.w3.org/2000/svg"
 width="500.000000pt" height="500.000000pt" viewBox="0 0 500.000000 500.000000"
 preserveAspectRatio="xMidYMid meet">
<metadata>
Created by potrace 1.11, written by Peter Selinger 2001-2013
</metadata>
<g transform="translate(0.000000,500.000000) scale(0.100000,-0.100000)"
fill="#000000" stroke="none">
<path d="M2420 4647 c-25 -13 -65 -36 -90 -52 -89 -58 -148 -68 -238 -42 -29
9 -56 16 -60 17 -4 0 -24 5 -45 11 -86 23 -131 4 -232 -103 -101 -106 -126
-117 -257 -122 -182 -7 -202 -19 -277 -170 -67 -134 -91 -154 -256 -201 -68
-20 -118 -53 -140 -94 -8 -16 -22 -73 -31 -127 -9 -55 -25 -116 -35 -136 -18
-35 -115 -118 -138 -118 -20 0 -121 -108 -122 -132 -3 -55 -2 -97 6 -158 16
-128 1 -176 -85 -270 -65 -72 -94 -130 -87 -178 2 -20 24 -81 47 -136 52 -122
52 -161 -5 -286 -65 -141 -54 -201 54 -318 17 -18 43 -53 57 -78 26 -44 27
-49 19 -142 -13 -175 -12 -194 13 -234 14 -22 58 -60 115 -98 120 -81 146
-121 161 -250 11 -96 42 -160 91 -189 17 -10 76 -32 133 -50 121 -38 141 -56
202 -180 49 -100 90 -148 140 -161 19 -5 81 -10 137 -11 131 -2 160 -16 255
-120 40 -43 88 -86 107 -96 47 -22 106 -19 206 11 120 36 155 30 277 -43 56
-34 114 -62 128 -63 14 0 32 -2 40 -3 29 -3 178 68 200 96 3 4 27 14 54 23 55
19 95 16 193 -13 158 -47 181 -39 333 123 62 67 88 78 199 83 150 7 195 18
231 60 17 19 49 72 70 117 22 46 52 95 67 111 27 27 92 60 136 69 91 19 158
57 185 105 12 20 28 81 38 136 22 135 40 163 145 235 96 66 148 119 150 153 1
12 2 33 3 47 0 14 -4 63 -10 109 -17 130 -7 157 102 287 92 109 92 134 10 329
-37 86 -34 130 16 244 64 148 59 201 -32 301 -12 14 -34 41 -49 60 -14 19 -29
37 -33 41 -18 13 -25 101 -14 172 18 111 12 172 -19 213 -15 19 -66 61 -115
94 -48 32 -98 73 -110 90 -14 19 -28 68 -40 134 -24 130 -39 167 -81 198 -32
24 -105 53 -160 63 -42 8 -111 48 -134 80 -13 16 -36 57 -52 90 -75 159 -98
174 -263 180 -74 2 -130 9 -153 18 -20 9 -75 56 -124 107 -104 107 -129 119
-225 101 -35 -7 -85 -19 -112 -28 -77 -25 -141 -14 -227 38 -148 88 -189 97
-269 56z"/>
</g>
</svg>
